<svg width="394" height="99" viewBox="0 0 394 99" fill="none" xmlns="http://www.w3.org/2000/svg">
<path d="M30.1279 0C25.9467 3.95729 21.9148 9.96758 18.0322 18.0312C14.1496 26.0952 11.0134 34.8689 8.62402 44.3516C6.23472 53.8341 5.04006 62.5327 5.04004 70.4473C5.04004 76.8684 5.63743 82.4685 6.83203 87.2471C8.02667 92.0256 9.44528 95.6473 11.0879 98.1113H9.18359C7.98899 96.3194 6.68225 93.8555 5.26367 90.7197C3.84506 87.5092 2.61367 83.5891 1.56836 78.96C0.523047 74.3307 2.09722e-05 69.2904 0 63.8398C0 53.4612 2.01586 43.6048 6.04785 34.2715C10.1545 24.9382 14.4478 17.2848 18.9277 11.3115C23.4073 5.3387 26.5062 1.56825 28.2236 0H30.1279ZM384.089 0C385.209 1.56806 386.44 4.18155 387.784 7.83984C389.203 11.4984 390.435 15.8287 391.48 20.8311C392.526 25.8336 393.049 30.9859 393.049 36.2871C393.049 43.0818 391.817 50.3626 389.353 58.1279C386.963 65.8185 383.641 73.2105 379.385 80.3037C375.129 87.3222 370.35 93.258 365.049 98.1113H363.145C367.55 94.0047 371.619 88.1057 375.353 80.415C379.16 72.6498 382.185 64.2127 384.425 55.1035C386.739 45.9195 387.896 37.2954 387.896 29.2314C387.896 22.661 387.337 16.7251 386.217 11.4238C385.097 6.12277 383.752 2.3147 382.185 0H384.089ZM326.406 84.3682C325.286 87.7279 322.15 89.2961 319.014 88.2881C315.878 87.168 314.198 83.9192 315.43 80.4473L333.91 28.8154C335.478 24.3357 333.35 20.304 328.311 20.3037H303.67C300.198 20.3036 297.622 17.9517 297.622 14.5918C297.622 11.3438 300.198 8.99226 303.67 8.99219H353.286L326.406 84.3682ZM82.7607 7.87207C105.945 7.8722 123.528 25.7916 123.528 48.1914C123.528 70.5913 105.945 88.5116 82.7607 88.5117C59.6887 88.5117 42.1045 70.5914 42.1045 48.1914C42.1046 25.7915 59.6888 7.87207 82.7607 7.87207ZM217.352 7.87207C229.895 7.87232 239.863 17.9515 239.863 30.1592C239.863 36.8792 236.727 42.8157 231.463 46.8477C237.399 50.9916 240.983 57.4874 240.983 64.9912C240.983 77.9831 230.567 88.5115 217.352 88.5117H217.127C203.799 88.5116 193.495 78.0952 193.495 64.9912C193.495 57.4874 196.967 51.1036 202.903 46.8477C197.751 42.9277 194.615 36.9912 194.615 30.1592C194.615 17.8394 204.471 7.87216 217.127 7.87207H217.352ZM158.852 8.99219C172.404 8.99219 182.483 18.624 182.483 31.168C182.483 43.7117 172.404 53.12 159.412 53.1201H158.292C151.572 53.1201 146.532 57.9359 146.532 64.5439C146.532 71.1517 151.46 75.9676 158.067 75.9678H181.588V87.3916H134.884V64.3193C134.884 51.4395 144.404 42.0312 157.508 42.0312H158.628C165.236 42.0312 170.164 37.4398 170.164 31.168C170.164 24.896 165.235 20.3037 158.067 20.3037H135.78V8.99219H158.852ZM281.457 7.87207C284.817 7.87224 287.393 10.4477 287.393 13.8076V87.3916H275.633V43.7119H254.017C250.769 43.7119 248.305 41.2473 248.305 38.1113C248.305 34.8635 250.769 32.5118 254.017 32.5117H258.161C267.905 32.5115 275.633 24.8957 275.633 15.04V13.8076C275.633 10.4476 278.097 7.87207 281.457 7.87207ZM82.7607 19.6318C67.4168 19.6318 54.8722 32.3995 54.8721 48.1914C54.8721 63.8714 67.4167 76.752 82.7607 76.752C98.2166 76.7518 110.648 63.8713 110.648 48.1914C110.648 32.3996 98.2166 19.632 82.7607 19.6318ZM217.127 53.2314C210.743 53.2315 205.591 58.6074 205.591 64.9912C205.591 71.3752 210.743 76.7519 217.127 76.752H217.352C223.623 76.7517 228.887 71.2631 228.887 64.9912C228.887 58.7195 223.623 53.2317 217.352 53.2314H217.127ZM217.127 19.2959C211.303 19.296 206.488 24.2234 206.487 30.1592C206.487 36.0951 211.303 41.1356 217.127 41.1357H217.352C223.063 41.1355 227.991 36.095 227.991 30.1592C227.991 24.3355 223.063 19.2962 217.352 19.2959H217.127Z" fill="white"/>
</svg>
