<svg width="88" height="96" viewBox="0 0 88 96" fill="none" xmlns="http://www.w3.org/2000/svg">
<path d="M43.9395 0C68.9958 0 88 21.3333 88 48C88 74.6667 68.9958 96 43.9395 96C19.0041 96 0 74.6667 0 48C3.62478e-08 21.3333 19.0041 1.68238e-05 43.9395 0ZM43.9395 14C27.3562 14 13.7988 29.2 13.7988 48C13.7988 66.6667 27.3562 82 43.9395 82C60.6437 82 74.0801 66.6667 74.0801 48C74.0801 29.2 60.6437 14 43.9395 14ZM44.0566 28C50.3962 28 55.4336 33.0001 55.4336 39.0557C55.4336 42.3889 53.8488 45.333 51.1885 47.333C54.1884 49.3885 55.9999 52.6109 56 56.333C56 62.7774 50.7359 68 44.0566 68H43.9434C37.2075 68 32 62.833 32 56.333C32.0001 52.6109 33.755 49.4441 36.7549 47.333C34.1512 45.3886 32.5664 42.4445 32.5664 39.0557C32.5664 32.9446 37.5472 28 43.9434 28H44.0566ZM43.9434 50.5C40.7171 50.5 38.1135 53.1665 38.1133 56.333C38.1133 59.4997 40.717 62.167 43.9434 62.167H44.0566C47.2264 62.167 49.8867 59.4441 49.8867 56.333C49.8865 53.222 47.2263 50.5 44.0566 50.5H43.9434ZM43.9434 33.667C41 33.667 38.5664 36.1112 38.5664 39.0557C38.5665 42 41 44.5 43.9434 44.5H44.0566C46.9434 44.5 49.4335 42 49.4336 39.0557C49.4336 36.1668 46.9434 33.667 44.0566 33.667H43.9434Z" fill="white"/>
</svg>
